/* XPM */
static char *librecad[] = {
/* columns rows colors chars-per-pixel */
"32 32 195 2 ",
"   c #3A3A3A",
".  c #57653C",
"X  c #57653D",
"o  c #484847",
"O  c #48464A",
"+  c #48474C",
"@  c #494949",
"#  c #4B4A4E",
"$  c #4C4A4F",
"%  c #4C4C4C",
"&  c #4D4D4D",
"*  c #4E4E4C",
"=  c #4E4E4D",
"-  c #4F4F4F",
";  c #545D43",
":  c #545D44",
">  c #565E47",
",  c #4A4750",
"<  c #4B4751",
"1  c #555555",
"2  c #596641",
"3  c #616953",
"4  c #646A58",
"5  c #616160",
"6  c #616161",
"7  c #626262",
"8  c #636362",
"9  c #636363",
"0  c #706F72",
"q  c #85D600",
"w  c #86D600",
"e  c #87D700",
"r  c #8AD500",
"t  c #88D700",
"y  c #89D700",
"u  c #89D701",
"i  c #8AD700",
"p  c #8DD702",
"a  c #8FD706",
"s  c #88D800",
"d  c #89D800",
"f  c #89D900",
"g  c #8AD800",
"h  c #8BD800",
"j  c #8BD801",
"k  c #8BDA00",
"l  c #8BD802",
"z  c #8CD800",
"x  c #8DD900",
"c  c #8CD801",
"v  c #8DD901",
"b  c #8ED900",
"n  c #8ED901",
"m  c #8FD901",
"M  c #8DD802",
"N  c #8DD902",
"B  c #8ED902",
"V  c #8FD902",
"C  c #8ED903",
"Z  c #8DD904",
"A  c #8DD905",
"S  c #8ED905",
"D  c #8ED906",
"F  c #8FD906",
"G  c #8ED907",
"H  c #8FD908",
"J  c #90DA03",
"K  c #90D905",
"L  c #90DA04",
"P  c #90DA05",
"I  c #91DA05",
"U  c #90DA06",
"Y  c #91DA06",
"T  c #91DB06",
"R  c #91DA07",
"E  c #92DC05",
"W  c #96DC13",
"Q  c #97DC14",
"!  c #96DC16",
"~  c #96DC17",
"^  c #98DC15",
"/  c #96DC18",
"(  c #97DC18",
")  c #96DC19",
"_  c #97DC19",
"`  c #96DC1A",
"'  c #9BDD1C",
"]  c #9BDD1E",
"[  c #9CDE1F",
"{  c #9CDE26",
"}  c #9FDF26",
"|  c #A0DF28",
" . c #A0DF29",
".. c #A1DF2B",
"X. c #A0DD30",
"o. c #A1DD31",
"O. c #A2E02E",
"+. c #A3E02E",
"@. c #A3E02F",
"#. c #A3E030",
"$. c #A2E033",
"%. c #A3E033",
"&. c #A4E032",
"*. c #A3E034",
"=. c #A3E035",
"-. c #ACE344",
";. c #ADE346",
":. c #ACE348",
">. c #ADE348",
",. c #ADE349",
"<. c #ADE34A",
"1. c #AFE44A",
"2. c #AEE44C",
"3. c #AFE44D",
"4. c #B0E44A",
"5. c #B0E44B",
"6. c #B2E74E",
"7. c #B3E74F",
"8. c #B5E658",
"9. c #B6E75C",
"0. c #B7E75D",
"q. c #BBE866",
"w. c #BCE867",
"e. c #BBE868",
"r. c #BBE869",
"t. c #BCE969",
"y. c #BCE86A",
"u. c #BDE96A",
"i. c #C2EB75",
"p. c #C1EA76",
"a. c #C1EA77",
"s. c #C3EB77",
"d. c #C2EA78",
"f. c #C2EB79",
"g. c #C4EB78",
"h. c #808080",
"j. c #9B9B9B",
"k. c #CBED8A",
"l. c #CBEE8B",
"z. c #CCEE8A",
"x. c #CCEE8C",
"c. c #D5F29E",
"v. c #D5F29F",
"b. c #D5F1A0",
"n. c #D5F1A1",
"m. c #D5F0A2",
"M. c #D5F1A2",
"N. c #D5F1A3",
"B. c #D6F1A2",
"V. c #D6F1A3",
"C. c #D7F1A3",
"Z. c #E7F7CA",
"A. c #E7F7CB",
"S. c #E8F7CB",
"D. c #E9F8CD",
"F. c #EAF8CE",
"G. c #EAF8CF",
"H. c #ECF6D7",
"J. c #EAF8D0",
"K. c #EBF8D3",
"L. c #ECF9D4",
"P. c #ECF9D5",
"I. c #EDF9D7",
"U. c #EEF9D9",
"Y. c #EFFAD9",
"T. c #EFFADA",
"R. c #EFFADB",
"E. c #F0FADC",
"W. c #F0FADD",
"Q. c #F4FBE7",
"!. c #F5FBE8",
"~. c #F5FCE8",
"^. c #F5FCE9",
"/. c #F5FCEA",
"(. c #F6FCEA",
"). c #FAFDF3",
"_. c #FAFDF4",
"`. c #FAFDF5",
"'. c #FBFEF5",
"]. c #FBFEF6",
"[. c #FCFEF6",
"{. c #F9F9F9",
"}. c #FBFCFA",
"|. c #FDFEFA",
" X c #FDFEFB",
".X c #FCFCFC",
"XX c #FDFDFD",
"oX c #FDFEFC",
"OX c #FEFEFC",
"+X c #FEFFFC",
"@X c #FEFFFD",
"#X c #FFFDFF",
"$X c #FEFFFE",
"%X c #FFFFFE",
"&X c #FFFFFF",
/* pixels */
"b b y } oXoXoXoXoXoX(.b.0.O.! P P ! O.8.c.!.oXoXoXoXoXoX| l b b ",
"b P b | oXoXoXoXR.u.! l y l b b b b l l l W u.P.oXoXoXoX| b P S ",
"l l w { |.oX|.g.S w b P P b b l l l b P P l w S g.].oXoX} w l l ",
"} | { -.oXR.#.w S R b w w P ' | | ' P w y S R b w #.E.oX-.' } } ",
"oXoX|.oXG.! y P S y S 1.C.E.].oXoX].E.C.5.S w P P y ! G.oXoXoXoX",
"oXoXoXR.` l P b y 1.G.oXoXoXoXoXoXoXoXoXoXJ.1.y b P y ` R.oXoXoX",
"oXoX[.#.w P b l x.oXoXoXoXoXoXoXoXoXoXoXoXoXoXx.l b P y =.[.oXoX",
"oXoXa.w P b l C.oXoXoXoXoXoXoXoXoXoXoXoXoXoXoXoXC.l b P w f.oXoX",
"oXP.H b P y l.oXoXoXoXoXoXoXoXoXoXoXoXoXoXoXoXoXoXl.w J b H P.oX",
"oXu.w P w <.oXoXoXoXoXoXoXoXoXoXoXoXoXoXoXoXoXoXoXoX<.w P w u.oX",
"Q.` b b S D.oXoXoXoXoXoXoXoXoXoXoXoXoXoXoXoXoXoXoXoXG.S b b ` !.",
"c.l E l 7.oXoXoXoXoXoXoXoXoXoXoXoXoXoXoXoXoXoXoXoXoXoX6.y P y b.",
"3 . 2 . 4 0 8 j.oXoXoXoXoXoXoXoXoXoXoXoXoXoXoXoXoXoXoXb.w P y 0.",
"+ , , , O o   h.oX.X.X.X.XoX.X.XoX.X.XoX.X.XoX.X.XoXoXH.H p y o.",
"= & = * = = & 1 9 7 7 7 7 7 7 7 7 7 7 7 7 7 7 7 7 7 9 7 : : : > ",
"& & & & & & & & @ @ @ @ @ @ @ @ @ @ @ @ @ @ @ @ @ @ @ @ , $ $ , ",
"& & & & & & - & @ @ @ @ @ @ @ @ @ @ @ @ @ @ @ @ @ @ @ @ $ , , $ ",
"& & & & & - & 1 7 7 7 7 7 7 7 7 7 7 7 7 7 7 7 7 7 7 7 7 : : : > ",
"@ , , , + @   h.oX.XoX.X.X.XoX.X.XoX.X.XoX.X.XoX.X.XoXH.a p p o.",
"3 X 2 . 4 0 9 j.oXoXoXoXoXoXoXoXoXoXoXoXoXoXoXoXoXoXoXC.s E l 0.",
"b.l E l 6.oXoXoXoXoXoXoXoXoXoXoXoXoXoXoXoXoXoXoXoXoXoX2.w S l b.",
"(.` l b b A.oXoXoXoXoXoXoXoXoXoXoXoXoXoXoXoXoXoXoXoXA.S b b ` (.",
"oXr.s E w 1.oXoXoXoXoXoXoXoXoXoXoXoXoXoXoXoXoXoXoXoX<.w R w u.oX",
"oXL.H b P y x.oXoXoXoXoXoXoXoXoXoXoXoXoXoXoXoXoXoXx.y S b R P.oX",
"oXoXf.w P b l b.oXoXoXoXoXoXoXoXoXoXoXoXoXoXoXoXC.b b P w f.oXoX",
"oXoX|.=.y P b l x.oXoXoXoXoXoXoXoXoXoXoXoXoXoXx.l S P w =.[.oXoX",
"oXoXoXE.` l P S w ;.J.oXoXoXoXoXoXoXoXoXoXL.;.w b P l ` E.oXoXoX",
"oXoXoXoXG.! y P S y S 5.C.E.[.oXoX|.R.b.6.S y J P w ` G.oXoXoXoX",
"} } { -.oXE.=.w S P J w w S [ | O.' P w w S P S w #.Q.oX;.{ } } ",
"l l w { |.oX[.g.S w b P P b b l l l b P P b w P a.].oXoX} w l l ",
"b P b } oXoXoXoXE.u.! l l l b b b b b y l ^ u.R.oXoXoXoX} b b b ",
"b b l | oXoXoXoXoXoX(.b.0.O.! P P ! #.0.b.(.oXoXoXoXoXoX} l b b "
};
